#!OML:ASF H:\Terrain\Patient Classification 1\Animal1\Tuesday\Animal1.ASF
:FULLY-SPECIFIED
:DEGREES
1219
root 13.7163 15.8086 -5.29552 -166.435 -43.0669 173.66
lowerback 8.60097 -0.252453 1.38552
upperback -1.48185 -0.091604 2.05843
thorax -6.38418 -0.0698702 1.38999
lowerneck -8.28322 -0.0995976 -5.19355
upperneck 4.55289 -0.0747159 7.20567
head 2.99461 0.113055 3.34554
rclavicle 2.82274e-014 2.06736e-014
rhumerus -22.0362 8.03647 -17.1585
rradius 17.4978
rwrist -1.13321
rhand -21.7848 18.2908
rfingers 7.12502
rthumb 4.61654 -11.6389
lclavicle 2.82274e-014 2.06736e-014
lhumerus -46.8204 -14.2173 19.8118
lradius 19.1345
lwrist -46.9549
lhand 8.81758 57.9145
lfingers 7.12502
lthumb 34.004 -275.303
rfemur -39.4048 6.61103 21.8161
rtibia 48.9075
rfoot -12.3269 -18.771
rtoes 17.2613
lfemur -31.4779 19.8722 -21.1176
ltibia 77.3233
lfoot -6.84746 9.6291
ltoes 28.2687
1220
root 13.6631 15.8198 -5.33297 -166.548 -42.2647 173.364
lowerback 8.44425 -0.27588 1.12606
upperback -1.2708 -0.154759 2.22678
thorax -6.07005 -0.0905839 1.71718
lowerneck -8.54067 -0.0724649 -5.20416
upperneck 5.04337 -0.0284486 6.97408
head 3.20678 0.135358 3.2829
rclavicle -7.7526e-015 1.43125e-014
rhumerus -19.9383 10.4461 -14.3796
rradius 18.2082
rwrist -3.75765
rhand -22.1816 17.369
rfingers 7.12502
rthumb 4.23338 -12.5686
lclavicle -7.7526e-015 1.43125e-014
lhumerus -44.182 -15.8605 18.2648
lradius 19.2957
lwrist -45.8577
lhand 8.91928 58.4675
lfingers 7.12502
lthumb 34.1006 -274.771
rfemur -38.9065 6.9619 21.4988
rtibia 48.9059
rfoot -13.3137 -18.5623
rtoes 19.3471
lfemur -32.0076 19.2917 -21.26
ltibia 77.7966
lfoot -7.1978 9.91614
ltoes 25.2842
1221
root 13.6127 15.8185 -5.36507 -167.11 -41.6236 173.561
lowerback 8.384 -0.266146 1.26827
upperback -0.999166 -0.13147 2.54249
thorax -5.75044 -0.0848914 1.961
lowerneck -8.4079 -0.114408 -5.69095
upperneck 5.02275 -0.0420086 7.13524
head 3.18218 0.123094 3.43093
rclavicle -6.75868e-015 -2.70347e-014
rhumerus -17.956 12.3534 -11.2065
rradius 18.9124
rwrist -5.72126
rhand -22.0367 16.8364
rfingers 7.12502
rthumb 4.37329 -13.0984
lclavicle -6.75868e-015 -2.70347e-014
lhumerus -41.6153 -17.8064 16.9846
lradius 19.6908
lwrist -44.3223
lhand 9.33964 59.4278
lfingers 7.12502
lthumb 34.4997 -273.901
rfemur -38.2265 7.0056 21.7099
rtibia 48.8681
rfoot -12.7633 -19.0348
rtoes 14.4276
lfemur -32.416 18.7882 -20.9072
ltibia 78.2108
lfoot -7.48493 9.96853
ltoes 22.8768
1222
root 13.5689 15.8056 -5.40218 -168.059 -40.9132 174.535
lowerback 8.21244 -0.247482 1.85989
upperback -0.754236 -0.0612164 2.95022
thorax -5.39869 -0.0721106 2.0411
lowerneck -8.1504 -0.0485429 -5.70619
upperneck 4.79739 0.0587057 6.99553
head 3.0458 0.164152 3.38032
rclavicle -2.82274e-014 -2.22639e-014
rhumerus -15.9885 14.5912 -8.11949
rradius 19.6254
rwrist -7.43183
rhand -21.3201 16.1677
rfingers 7.12502
rthumb 5.06529 -13.7518
lclavicle -2.82274e-014 -2.22639e-014
lhumerus -38.678 -17.9943 14.4088
lradius 19.8241
lwrist -44.2923
lhand 9.30238 60.2801
lfingers 7.12502
lthumb 34.4644 -273.04
rfemur -37.6898 7.41012 22.5532
rtibia 48.8493
rfoot -12.4475 -19.44
rtoes 12.455
lfemur -33.0128 18.4546 -19.8603
ltibia 78.6044
lfoot -7.81272 9.75646
ltoes 22.5268
1223
root 13.5279 15.8009 -5.43947 -168.664 -40.0602 175.284
lowerback 7.90369 -0.314642 2.21218
upperback -0.498471 -0.143883 3.26283
thorax -4.95486 -0.126476 2.17319
lowerneck -8.30922 0.14021 -5.29604
upperneck 4.76567 0.311026 6.50431
head 3.03825 0.283797 3.14289
rclavicle -4.25399e-014 -9.54166e-015
rhumerus -13.6402 16.6027 -5.08878
rradius 20.1366
rwrist -8.31327
rhand -21.2019 15.383
rfingers 7.12502
rthumb 5.17944 -14.5337
lclavicle -4.25399e-014 -9.54166e-015
lhumerus -35.8325 -17.4096 11.3885
lradius 19.7445
lwrist -44.2631
lhand 9.15068 60.6792
lfingers 7.12502
lthumb 34.3204 -272.609
rfemur -37.478 8.11529 23.101
rtibia 48.8775
rfoot -13.7706 -18.8284
rtoes 19.7693
lfemur -33.8676 18.127 -19.0523
ltibia 78.8876
lfoot -8.01493 9.66946
ltoes 23.7123
1224
root 13.475 15.8132 -5.46249 -168.356 -39.5336 174.549
lowerback 7.60067 -0.516375 1.83208
upperback -0.205268 -0.473047 3.25853
thorax -4.46737 -0.280029 2.41167
lowerneck -8.30898 0.281401 -4.99622
upperneck 4.46677 0.512953 6.03018
head 2.9159 0.373913 2.92424
rclavicle 9.14409e-015 -1.59028e-015
rhumerus -11.4118 17.7606 -1.81664
rradius 20.5943
rwrist -8.93263
rhand -21.5582 14.5649
rfingers 7.12502
rthumb 4.83534 -15.36
lclavicle 9.14409e-015 -1.59028e-015
lhumerus -33.1915 -17.9005 9.12644
lradius 19.8069
lwrist -42.3535
lhand 9.82615 61.3106
lfingers 7.12502
lthumb 34.9614 -272.124
rfemur -37.2409 7.97922 22.4315
rtibia 48.9528
rfoot -12.8777 -19.2477
rtoes 12.4518
lfemur -34.4699 17.1786 -19.5716
ltibia 78.8199
lfoot -8.55189 9.75856
ltoes 22.4717
1225
root 13.4172 15.8234 -5.47992 -168.222 -39.3295 173.594
lowerback 7.63916 -0.732958 1.49627
upperback 0.0777545 -0.803797 3.21219
thorax -4.18081 -0.438446 2.58516
lowerneck -7.85171 0.378978 -4.77311
upperneck 3.9721 0.647527 5.61963
head 2.64835 0.42546 2.72957
rclavicle -4.81059e-014 9.54166e-015
rhumerus -9.63398 19.1785 1.64481
rradius 21.0313
rwrist -10.1666
rhand -21.5951 14.7194
rfingers 7.12502
rthumb 4.79974 -15.2062
lclavicle -4.81059e-014 9.54166e-015
lhumerus -30.4828 -18.3746 7.04162
lradius 20.0532
lwrist -40.1106
lhand 10.6828 62.0892
lfingers 7.12502
lthumb 35.7736 -271.539
rfemur -36.5628 7.38142 21.6819
rtibia 49.0325
rfoot -13.6133 -19.047
rtoes 12.1778
lfemur -34.5678 15.7578 -20.0962
ltibia 78.5735
lfoot -9.71348 9.28406
ltoes 25.2899
1226
root 13.3634 15.8282 -5.50588 -168.996 -39.1092 173.999
lowerback 7.84172 -0.919317 2.02893
upperback 0.263641 -1.01696 3.51576
thorax -4.09778 -0.563024 2.6277
lowerneck -7.48618 0.493813 -4.92289
upperneck 3.81781 0.822562 5.42379
head 2.51672 0.500818 2.68935
rclavicle 8.74653e-014 3.02153e-014
rhumerus -7.77028 20.883 5.27353
rradius 21.4776
rwrist -11.7318
rhand -21.851 15.1389
rfingers 7.12502
rthumb 4.55262 -14.7922
lclavicle 8.74653e-014 3.02153e-014
lhumerus -28.1286 -18.7206 4.99375
lradius 20.4794
lwrist -38.0867
lhand 10.7051 62.7252
lfingers 7.12502
lthumb 35.7948 -270.908
rfemur -35.7228 7.3052 22.0507
rtibia 49.0513
rfoot -15.203 -18.7684
rtoes 16.3745
lfemur -34.7964 14.6971 -19.3213
ltibia 78.4594
lfoot -10.6993 8.34169
ltoes 32.8006
1227
root 13.3134 15.8289 -5.53827 -169.598 -38.7119 174.445
lowerback 7.83243 -1.0753 2.44874
upperback 0.440968 -1.20993 3.82525
thorax -3.90407 -0.675211 2.73271
lowerneck -7.4361 0.562813 -5.23988
upperneck 3.79408 0.951403 5.36257
head 2.49255 0.558533 2.73196
rclavicle -8.74653e-015 -5.40694e-014
rhumerus -5.78705 21.7523 8.93834
rradius 22.0128
rwrist -12.5702
rhand -21.9572 14.9328
rfingers 7.12502
rthumb 4.45014 -15.0004
lclavicle -8.74653e-015 -5.40694e-014
lhumerus -26.1449 -19.0844 2.88119
lradius 21.0099
lwrist -35.9854
lhand 9.83387 62.9938
lfingers 7.12502
lthumb 34.9688 -270.443
rfemur -35.1477 7.45988 22.432
rtibia 49.043
rfoot -16.0445 -18.774
rtoes 17.7231
lfemur -35.3112 14.0169 -18.7174
ltibia 78.2339
lfoot -10.5254 8.92645
ltoes 30.1451
